<svg width="322" height="66" viewBox="0 0 322 66" fill="none" xmlns="http://www.w3.org/2000/svg">
<g clip-path="url(#clip0_2002_329)">
<path fill-rule="evenodd" clip-rule="evenodd" d="M32.6643 0.442749C50.645 0.442749 65.2215 15.0192 65.2215 32.9999C65.2215 50.9806 50.645 65.557 32.6643 65.557C14.6836 65.557 0.107178 50.9806 0.107178 32.9999C0.107178 15.0192 14.6836 0.442749 32.6643 0.442749Z" fill="#2A647C"/>
<path fill-rule="evenodd" clip-rule="evenodd" d="M32.4896 7.4881C36.3179 7.4881 39.4209 10.5912 39.4209 14.4194C39.4209 18.2473 36.3179 21.3504 32.4896 21.3504C28.6614 21.3504 25.5583 18.2473 25.5583 14.4194C25.5583 10.5912 28.6614 7.4881 32.4896 7.4881Z" fill="#FEFEFE"/>
<path fill-rule="evenodd" clip-rule="evenodd" d="M20.7822 18.5549C19.5263 14.0988 15.3469 10.8447 11.0375 15.0596C15.3805 15.7279 17.6475 19.0111 18.5689 23.0975C19.5202 31.8615 22.6436 33.173 25.7919 34.3972C23.6924 32.1235 23.1901 27.0951 20.7822 18.5549Z" fill="#FEFEFE"/>
<path fill-rule="evenodd" clip-rule="evenodd" d="M45.3218 24.7289C44.5221 37.3938 36.8584 36.9304 29.0536 37.193C35.649 33.8311 38.8543 32.6715 39.4394 23.916C39.7747 12.3454 45.7624 9.57988 52.1181 10.9833C47.7977 14.5474 45.841 16.5007 45.3218 24.7291V24.7289Z" fill="#FEFEFE"/>
<path fill-rule="evenodd" clip-rule="evenodd" d="M47.4584 50.589C43.6531 51.6605 39.8479 51.1114 36.0423 50.0066C43.1934 56.4292 54.8522 56.6857 55.4961 46.9777C55.6704 40.5276 49.8866 34.1658 41.6341 38.3578C32.7526 43.9533 25.7003 48.7636 19.5012 49.5407C14.2839 49.6676 12.7909 45.1833 16.1226 41.9688C18.8238 39.4294 23.8729 41.1835 27.7715 43.4833C24.5418 36.0002 9.56854 35.0859 8.66742 46.3957C8.43538 51.0786 14.501 59.3923 27.1894 52.4527C32.703 49.1521 38.217 45.8518 43.7305 42.5512C49.4033 39.3824 55.4961 46.9777 47.4582 50.5892L47.4584 50.589Z" fill="#FEFEFE"/>
<path d="M94.3158 35.0073V38.5915H87.1476V56.3515H82.9877V35.0073H94.3158ZM108.908 56.3515L107.02 51.8716H98.4117L96.5235 56.3515H92.0114L101.26 34.5595H104.395L113.388 56.3515H108.908ZM99.7235 48.4795H105.804L102.796 40.7995L99.7237 48.4795H99.7235ZM115.884 35.0075H122.092C123.414 35.0075 124.497 35.1194 125.34 35.3435C126.182 35.5676 126.977 35.9995 127.723 36.6396C129.174 37.9197 129.9 39.6371 129.9 41.7918C129.9 43.7968 129.313 45.3861 128.139 46.5597C126.881 47.8182 125.078 48.4476 122.731 48.4476H120.043V56.3517H115.884V35.0075H115.884ZM120.044 38.5917V44.8639H121.74C122.956 44.8639 123.862 44.6398 124.46 44.1919C125.228 43.5943 125.612 42.7625 125.612 41.6959C125.612 40.6505 125.217 39.8398 124.428 39.2638C123.788 38.8156 122.806 38.5919 121.484 38.5919H120.044V38.5917ZM131.884 56.3517L135.852 34.6235H138.732L144.524 48.5757L150.572 34.6235H153.452L157.036 56.3517H152.812L150.892 43.1997L145.036 56.6396H143.884L138.284 43.1997L136.108 56.3517H131.884ZM162.972 37.6634C165.094 35.573 167.83 34.5275 171.18 34.5275C174.529 34.5275 177.265 35.573 179.388 37.6634C181.51 39.7543 182.571 42.4316 182.571 45.6955C182.571 48.9595 181.51 51.6316 179.388 53.7115C177.265 55.7914 174.529 56.8315 171.18 56.8315C167.83 56.8315 165.094 55.7914 162.972 53.7115C160.849 51.6316 159.788 48.9595 159.788 45.6955C159.788 42.4316 160.849 39.7541 162.972 37.6634ZM166.06 50.9914C167.382 52.3676 169.089 53.0554 171.18 53.0554C173.27 53.0554 174.977 52.3676 176.3 50.9914C177.622 49.6157 178.284 47.8503 178.284 45.6955C178.284 43.5408 177.617 41.7701 176.284 40.3835C174.95 38.9968 173.249 38.3036 171.18 38.3036C169.11 38.3036 167.409 38.9968 166.075 40.3835C164.742 41.7701 164.076 43.5409 164.076 45.6955C164.076 47.8503 164.737 49.6157 166.06 50.9914ZM190.572 35.0075V43.2634H199.596V35.0075H203.756V56.3517H199.596V46.8476H190.572V56.3517H186.412V35.0075H190.572ZM208.62 35.0075H212.78V49.3436L224.556 34.5275H227.436V56.3517H223.276V41.9516L211.5 56.7677H208.62V35.0075ZM245.612 35.0075V56.3517H241.452V48.0957H240.684L235.244 56.3517H230.252L236.588 47.7117C235.735 47.5836 234.956 47.2639 234.252 46.7518C232.652 45.5999 231.852 43.8823 231.852 41.5999C231.852 39.5303 232.556 37.8772 233.964 36.6397C235.201 35.5515 237.026 35.0077 239.436 35.0077H245.612L245.612 35.0075ZM241.452 38.3995H240.172C239.831 38.3995 239.5 38.4207 239.18 38.4634C238.86 38.5062 238.434 38.6181 237.9 38.7994C237.367 38.9807 236.94 39.3115 236.62 39.7914C236.3 40.2714 236.14 40.8739 236.14 41.5996C236.14 43.7539 237.506 44.8314 240.236 44.8314H241.452V38.3994L241.452 38.3995ZM256.844 56.3515L260.812 34.6234H263.692L269.484 48.5755L275.532 34.6234H278.412L281.996 56.3515H277.772L275.852 43.1996L269.996 56.6395H268.844L263.244 43.1996L261.068 56.3515H256.844ZM297.612 35.0073V38.5915H289.932V43.3594H297.292V46.9436H289.932V52.7675H297.612V56.3517H285.772V35.0075H297.612V35.0073ZM303.692 35.0073H318.092V52.7673H320.332V61.1513H316.492V56.3513H303.372V61.1513H299.532V52.7673C300.257 52.7888 300.919 52.5273 301.516 51.9835C302.113 51.4396 302.583 50.7408 302.924 49.8873C303.436 48.586 303.692 46.7194 303.692 44.2876V35.0073H303.692ZM307.724 38.5915V44.2876C307.724 46.9541 307.479 48.9379 306.988 50.2395C306.604 51.2207 306.05 52.0636 305.324 52.7673H313.932V38.5914H307.724V38.5915Z" fill="#2A647C"/>
<path d="M82.9877 24.5942L85.7702 9.35814H87.7896L91.8511 19.1414L96.092 9.35814H98.1114L100.625 24.5942H97.6629L96.3166 15.3718L92.2102 24.796H91.4025L87.4756 15.3718L85.9498 24.5942H82.9879H82.9877ZM111.575 9.6277V12.1408H106.189V15.4841H111.35V17.9976H106.189V22.0813H111.575V24.5944H103.272V9.62787H111.575V9.6277ZM115.838 9.6277H125.935V22.0812H127.506V27.9599H124.813V24.5942H115.613V27.9599H112.921V22.0812C113.429 22.0959 113.893 21.9127 114.312 21.5312C114.731 21.15 115.06 20.66 115.299 20.0614C115.658 19.149 115.838 17.8402 115.838 16.1348V9.62753L115.838 9.6277ZM118.665 12.1408V16.135C118.665 18.0046 118.493 19.3959 118.149 20.3087C117.88 20.9965 117.491 21.5877 116.982 22.0813H123.018V12.1408H118.665H118.665ZM129.436 9.6277H132.353V19.6801L140.61 9.29105H142.63V24.5944H139.713V14.497L131.455 24.8861H129.436V9.6277ZM146.04 24.5942V9.6277H148.957V22.0812H154.881V9.6277H157.798V22.0812H159.593V27.9599H156.901V24.5942H146.04ZM161.523 9.6277H164.44V19.6801L172.697 9.29105H174.717V24.5944H171.8V14.497L163.542 24.8861H161.523V9.6277ZM181.045 9.6277V15.4167H187.372V9.6277H190.289V24.5942H187.372V17.9298H181.045V24.5942H178.128V9.6277H181.045ZM204.561 20.645V24.0556C203.454 24.6392 202.219 24.9309 200.858 24.9309C198.674 24.9309 196.849 24.2351 195.383 22.8439C193.783 21.3034 192.982 19.3959 192.982 17.1221C192.982 14.6986 193.783 12.7466 195.383 11.2657C196.789 9.94932 198.622 9.29088 200.88 9.29088C202.197 9.29088 203.424 9.59779 204.561 10.2108V13.6217C203.588 12.4996 202.384 11.9386 200.948 11.9386C199.482 11.9386 198.289 12.4507 197.369 13.4757C196.449 14.5004 195.989 15.7306 195.989 17.1667C195.989 18.7374 196.498 19.9828 197.515 20.9029C198.532 21.8228 199.714 22.2828 201.06 22.2828C202.467 22.2828 203.633 21.7366 204.561 20.6448L204.561 20.645ZM210.17 9.6277V15.9553L215.667 9.6277H219.348L213.02 16.5389L219.684 24.5942H215.825L210.507 17.8852L210.17 18.2215V24.5941H207.253V9.62753H210.17V9.6277ZM221.524 9.6277H224.441V19.6801L232.699 9.29105H234.718V24.5944H231.801V14.497L223.544 24.8861H221.524V9.6277ZM238.129 9.6277H241.046V19.6801L249.303 9.29105H251.322V24.5944H248.406V14.497L240.148 24.8861H238.129V9.6277ZM240.687 5.65615L242.706 4.84814C243.035 5.71597 243.708 6.1498 244.726 6.1498C245.743 6.1498 246.416 5.71597 246.745 4.84814L248.765 5.65615C248.465 6.43389 247.968 7.04704 247.273 7.49608C246.577 7.94478 245.728 8.16921 244.726 8.16921C243.723 8.16921 242.875 7.94478 242.179 7.49608C241.483 7.04704 240.986 6.43406 240.687 5.65615ZM259.961 24.5942V9.6277H262.878V22.0812H268.802V9.6277H271.719V22.0812H273.514V27.9599H270.822V24.5942H259.961ZM283.747 9.6277V12.1408H278.361V15.4841H283.522V17.9976H278.361V22.0813H283.747V24.5944H275.444V9.62787H283.747V9.6277ZM289.491 9.6277V15.4167H295.818V9.6277H298.735V24.5942H295.818V17.9298H289.491V24.5942H286.574V9.6277H289.491ZM310.224 12.1408H306.858V24.5942H303.941V12.1408H300.575V9.6277H310.224V12.1408ZM312.064 9.6277H316.417C317.345 9.6277 318.104 9.70629 318.695 9.86312C319.285 10.0203 319.843 10.3231 320.366 10.772C321.383 11.6693 321.892 12.8737 321.892 14.3844C321.892 15.7909 321.481 16.9049 320.658 17.7278C319.775 18.6104 318.511 19.0518 316.866 19.0518H314.981V24.5941H312.064V9.62753L312.064 9.6277ZM314.981 12.1408V16.5391H316.17C317.023 16.5391 317.659 16.3819 318.078 16.0677C318.616 15.6489 318.885 15.0654 318.885 14.3174C318.885 13.5846 318.609 13.016 318.055 12.6119C317.606 12.2979 316.918 12.1406 315.991 12.1406H314.981V12.1408Z" fill="#2A647C"/>
</g>
<defs>
<clipPath id="clip0_2002_329">
<rect width="321.786" height="65.1145" fill="white" transform="translate(0.107178 0.442749)"/>
</clipPath>
</defs>
</svg>
